<svg xmlns="http://www.w3.org/2000/svg" viewBox="0 0 100 100" preserveAspectRatio="none">
  <circle cx="8" cy="12" r="1" fill="rgb(255,255,255)" />
  <circle cx="15" cy="8" r="1.5" fill="rgb(220,230,255)" fill-opacity="0.9" />
  <circle cx="22" cy="18" r="0.8" fill="rgb(255,255,255)" fill-opacity="0.7" />
  <circle cx="12" cy="25" r="1" fill="rgb(255,240,200)" fill-opacity="0.8" />
  <circle cx="6" cy="35" r="0.7" fill="rgb(255,255,255)" fill-opacity="0.6" />
  <circle cx="18" cy="42" r="1.2" fill="rgb(200,220,255)" fill-opacity="0.9" />
  <circle cx="10" cy="55" r="1" fill="rgb(255,255,255)" fill-opacity="0.8" />
  <circle cx="8" cy="68" r="0.8" fill="rgb(255,240,220)" fill-opacity="0.7" />
  <circle cx="15" cy="75" r="1.3" fill="rgb(255,255,255)" fill-opacity="0.9" />
  <circle cx="5" cy="88" r="1.5" fill="rgb(255,255,255)" />
  <circle cx="20" cy="92" r="1" fill="rgb(220,230,255)" fill-opacity="0.8" />

  <circle cx="85" cy="6" r="1.4" fill="rgb(255,255,255)" fill-opacity="0.9" />
  <circle cx="92" cy="15" r="2" fill="rgb(255,255,255)" />
  <circle cx="88" cy="22" r="0.9" fill="rgb(200,220,255)" fill-opacity="0.7" />
  <circle cx="78" cy="28" r="1" fill="rgb(255,240,200)" fill-opacity="0.8" />
  <circle cx="95" cy="38" r="1.1" fill="rgb(255,255,255)" fill-opacity="0.8" />
  <circle cx="82" cy="48" r="0.8" fill="rgb(255,255,255)" fill-opacity="0.7" />
  <circle cx="90" cy="58" r="1.3" fill="rgb(220,230,255)" fill-opacity="0.9" />
  <circle cx="86" cy="68" r="1" fill="rgb(255,255,255)" fill-opacity="0.8" />
  <circle cx="93" cy="75" r="1.2" fill="rgb(255,240,220)" fill-opacity="0.9" />
  <circle cx="78" cy="82" r="0.9" fill="rgb(255,255,255)" fill-opacity="0.7" />
  <circle cx="88" cy="90" r="1.5" fill="rgb(255,255,255)" />

  <circle cx="35" cy="5" r="0.7" fill="rgb(255,255,255)" fill-opacity="0.6" />
  <circle cx="45" cy="10" r="1" fill="rgb(220,230,255)" fill-opacity="0.8" />
  <circle cx="55" cy="8" r="1.2" fill="rgb(255,255,255)" fill-opacity="0.9" />
  <circle cx="65" cy="12" r="0.8" fill="rgb(255,240,200)" fill-opacity="0.7" />
  <circle cx="42" cy="92" r="1.1" fill="rgb(255,255,255)" fill-opacity="0.8" />
  <circle cx="52" cy="88" r="1.3" fill="rgb(255,255,255)" fill-opacity="0.9" />
  <circle cx="62" cy="95" r="1" fill="rgb(200,220,255)" fill-opacity="0.8" />
  <circle cx="72" cy="90" r="0.9" fill="rgb(255,255,255)" fill-opacity="0.7" />

  <circle cx="28" cy="30" r="0.6" fill="rgb(255,255,255)" fill-opacity="0.5" />
  <circle cx="25" cy="65" r="0.8" fill="rgb(220,230,255)" fill-opacity="0.7" />
  <circle cx="32" cy="78" r="0.7" fill="rgb(255,255,255)" fill-opacity="0.6" />
  <circle cx="70" cy="25" r="1" fill="rgb(255,240,200)" fill-opacity="0.8" />
  <circle cx="75" cy="70" r="1.2" fill="rgb(255,255,255)" fill-opacity="0.9" />
  <circle cx="68" cy="82" r="0.8" fill="rgb(255,255,255)" fill-opacity="0.7" />
</svg>
