<svg xmlns="http://www.w3.org/2000/svg" width="1200" height="1200" viewBox="0 0 1200 1200" fill="none">
  <rect width="1200" height="1200" fill="black" fill-opacity="0" />
  <circle cx="96" cy="144" r="1.2" fill="rgba(255,255,255,0.9)" />
  <circle cx="180" cy="96" r="1.6" fill="rgba(220,230,255,0.85)" />
  <circle cx="264" cy="216" r="0.9" fill="rgba(255,255,255,0.7)" />
  <circle cx="144" cy="300" r="1.1" fill="rgba(255,240,200,0.8)" />
  <circle cx="72" cy="420" r="0.8" fill="rgba(255,255,255,0.6)" />
  <circle cx="216" cy="504" r="1.3" fill="rgba(200,220,255,0.9)" />
  <circle cx="120" cy="660" r="1.0" fill="rgba(255,255,255,0.8)" />
  <circle cx="96" cy="816" r="0.9" fill="rgba(255,240,220,0.7)" />
  <circle cx="180" cy="900" r="1.4" fill="rgba(255,255,255,0.9)" />
  <circle cx="60" cy="1056" r="1.6" fill="rgba(255,255,255,1)" />
  <circle cx="240" cy="1104" r="1.1" fill="rgba(220,230,255,0.8)" />
  <circle cx="1020" cy="72" r="1.5" fill="rgba(255,255,255,0.9)" />
  <circle cx="1104" cy="180" r="2.0" fill="rgba(255,255,255,1)" />
  <circle cx="1056" cy="264" r="1.0" fill="rgba(200,220,255,0.7)" />
  <circle cx="936" cy="336" r="1.1" fill="rgba(255,240,200,0.8)" />
  <circle cx="1140" cy="456" r="1.2" fill="rgba(255,255,255,0.8)" />
  <circle cx="984" cy="576" r="0.9" fill="rgba(255,255,255,0.7)" />
  <circle cx="1080" cy="696" r="1.3" fill="rgba(220,230,255,0.9)" />
  <circle cx="1032" cy="816" r="1.0" fill="rgba(255,255,255,0.8)" />
  <circle cx="1116" cy="900" r="1.2" fill="rgba(255,240,220,0.9)" />
  <circle cx="936" cy="984" r="1.0" fill="rgba(255,255,255,0.7)" />
  <circle cx="1056" cy="1080" r="1.6" fill="rgba(255,255,255,1)" />
</svg>
